TestIreland
version=1
nRows=36
nColumns=25
inDegrees=yes
endheader
time	pelvis_tilt	pelvis_list	pelvis_rotation	pelvis_tx	pelvis_ty	pelvis_tz	hip_flexion_r	hip_adduction_r	hip_rotation_r	knee_flexion_r	knee_adduction_r	knee_rotation_r	ankle_angle_r	subtalar_angle_r	mtp_angle_r	hip_flexion_l	hip_adduction_l	hip_rotation_l	knee_flexion_l	knee_adduction_l	knee_rotation_l	ankle_angle_l	subtalar_angle_l	mtp_angle_l
0.000000	0.000000	0.000000	0.000000	0.000000	0.000000	0.000000	-9.989674	12.535928	-65.211467	-76.927981	47.321529	-43.414777	-160.081254	-7.435021	0.000000	-5.692937	-13.548370	28.440334	36.492074	5.558220	-6.102319	-8.721948	-18.292160	0.000000
0.005000	0.000000	0.000000	0.000000	0.000000	0.000000	0.000000	-9.989674	12.535928	-65.211467	-76.927981	47.321529	-43.414777	-160.081254	-7.435021	0.000000	-5.692937	-13.548370	28.440334	36.492074	5.558220	-6.102319	-8.721948	-18.292160	0.000000
0.010000	0.000000	0.000000	0.000000	0.000000	0.000000	0.000000	-9.989674	12.535928	-65.211467	-76.927981	47.321529	-43.414777	-160.081254	-7.435021	0.000000	-5.692937	-13.548370	28.440334	36.492074	5.558220	-6.102319	-8.721948	-18.292160	0.000000
0.015000	0.000000	0.000000	0.000000	0.000000	0.000000	0.000000	-10.129480	12.306178	-64.929052	-76.927981	47.321529	-43.414777	-159.998910	-7.507794	0.000000	-5.317198	-13.057665	28.226093	36.561066	5.573822	-6.025130	-7.557897	-18.211970	0.000000
0.020000	0.000000	0.000000	0.000000	0.000000	0.000000	0.000000	-10.276180	12.055916	-64.641060	-76.927981	47.321529	-43.414777	-159.918049	-7.577422	0.000000	-4.606008	-12.367808	28.060214	36.595312	5.613144	-5.903107	-6.392767	-18.145179	0.000000
0.025000	0.000000	0.000000	0.000000	0.000000	0.000000	0.000000	-10.496528	11.675250	-64.181038	-76.927981	47.321529	-43.414777	-160.230961	-7.296264	0.000000	-3.802888	-11.485740	27.727809	36.751929	5.640603	-5.805032	-5.054546	-18.254872	0.000000
0.030000	0.000000	0.000000	0.000000	0.000000	0.000000	0.000000	-10.643307	11.410979	-63.878866	-76.927981	47.321529	-43.414777	-160.247188	-7.281334	0.000000	-2.854065	-10.676796	27.558653	36.956915	5.661916	-5.722272	-3.995675	-18.271425	0.000000
0.035000	0.000000	0.000000	0.000000	0.000000	0.000000	0.000000	-10.837867	11.062534	-63.430139	-76.927981	47.321529	-43.414777	-160.520013	-7.036956	0.000000	-1.902704	-9.791025	27.224630	37.152630	5.686227	-5.650983	-3.735025	-18.092287	0.000000
0.040000	0.000000	0.000000	0.000000	0.000000	0.000000	0.000000	-10.981228	10.802421	-63.076979	-76.927981	47.321529	-43.414777	-160.549771	-7.009685	0.000000	-0.872516	-8.979005	26.983202	37.270743	5.722943	-5.579649	-4.031267	-17.820772	0.000000
0.045000	0.000000	0.000000	0.000000	0.000000	0.000000	0.000000	-11.202661	10.395256	-62.486763	-76.927981	47.321529	-43.414777	-160.741277	-6.839011	0.000000	0.102349	-8.074294	26.465779	37.380762	5.746979	-5.536074	-3.414708	-17.880857	0.000000
0.050000	0.000000	0.000000	0.000000	0.000000	0.000000	0.000000	-11.412233	10.056383	-61.562891	-77.059963	46.938989	-43.544304	-161.047062	-6.584567	0.000000	1.028201	-7.264261	25.967367	37.270688	5.791375	-5.557723	-2.751945	-17.994420	0.000000
0.055000	0.000000	0.000000	0.000000	0.000000	0.000000	0.000000	-11.696814	9.643936	-59.915117	-77.371015	46.010499	-43.849401	-161.650189	-6.096283	0.000000	1.855795	-6.415480	25.739218	36.895409	6.039428	-6.127439	-2.533509	-18.223638	0.000000
0.060000	0.000000	0.000000	0.000000	0.000000	0.000000	0.000000	-12.002620	9.314226	-57.436031	-77.934874	44.224713	-44.401825	-162.316597	-5.600618	0.000000	2.726506	-5.605056	25.556482	36.445192	6.252573	-6.847207	-2.385639	-18.692147	0.000000
0.065000	0.000000	0.000000	0.000000	0.000000	0.000000	0.000000	-12.354363	8.966402	-54.347352	-78.607295	41.907200	-45.062473	-162.428217	-5.617413	0.000000	3.632282	-4.806422	25.227470	36.015452	6.439556	-7.598019	-2.161555	-19.400482	0.000000
0.070000	0.000000	0.000000	0.000000	0.000000	0.000000	0.000000	-12.671941	8.686259	-51.355991	-79.217803	39.599482	-45.659712	-162.425758	-5.734572	0.000000	4.663277	-4.075258	25.006144	35.589385	6.642260	-8.412505	-2.053279	-20.178790	0.000000
0.075000	0.000000	0.000000	0.000000	0.000000	0.000000	0.000000	-12.979562	8.426954	-48.369902	-79.773650	37.296440	-46.190251	-161.608250	-6.569890	0.000000	5.702018	-3.418552	24.734599	35.114058	6.800508	-9.200958	-2.322597	-20.947838	0.000000
0.080000	0.000000	0.000000	0.000000	0.000000	0.000000	0.000000	-13.289711	8.059564	-45.697505	-80.188698	35.447883	-46.587967	-161.516711	-6.737576	0.000000	6.694155	-2.790540	24.233346	34.576149	6.886326	-9.936187	-2.456242	-21.857178	0.000000
0.085000	0.000000	0.000000	0.000000	0.000000	0.000000	0.000000	-13.559692	7.748318	-43.260822	-80.542158	33.778709	-46.927739	-160.505576	-7.709050	0.000000	7.707332	-2.266205	23.826404	33.998205	6.977878	-10.682857	-2.374733	-22.560837	0.000000
0.090000	0.000000	0.000000	0.000000	0.000000	0.000000	0.000000	-13.836143	7.434126	-40.671802	-80.898006	31.996202	-47.265036	-160.371136	-7.903677	0.000000	8.735976	-1.793544	23.374037	33.442358	7.046655	-11.439865	-2.262047	-22.911579	0.000000
0.095000	0.000000	0.000000	0.000000	0.000000	0.000000	0.000000	-14.107125	7.046235	-38.275602	-81.182378	30.513375	-47.547861	-160.413418	-7.931408	0.000000	9.674088	-1.402811	22.795049	32.686485	7.096663	-12.189868	-2.220526	-22.920246	0.000000
0.100000	0.000000	0.000000	0.000000	0.000000	0.000000	0.000000	-14.342176	6.607360	-36.318093	-81.364516	29.514578	-47.718914	-160.782051	-7.644593	0.000000	10.657165	-1.040063	22.162334	31.927029	7.109876	-12.955350	-2.214375	-22.274396	0.000000
0.105000	0.000000	0.000000	0.000000	0.000000	0.000000	0.000000	-14.526118	6.201719	-34.502895	-81.475006	28.634495	-47.808890	-160.339538	-8.065779	0.000000	11.717027	-0.741211	21.398783	31.225260	7.040100	-13.576489	-2.208392	-21.509298	0.000000
0.110000	0.000000	0.000000	0.000000	0.000000	0.000000	0.000000	-14.675172	5.764348	-32.685147	-81.523819	27.794315	-47.855590	-160.605218	-7.832051	0.000000	12.795461	-0.507111	20.563786	30.476298	6.951061	-14.174649	-2.251519	-20.219598	0.000000
0.115000	0.000000	0.000000	0.000000	0.000000	0.000000	0.000000	-14.772070	5.442560	-31.205460	-81.549089	27.118239	-47.900267	-160.650845	-7.784112	0.000000	13.799276	-0.372254	20.106830	29.442091	6.919098	-14.951534	-2.443175	-19.125189	0.000000
0.120000	0.000000	0.000000	0.000000	0.000000	0.000000	0.000000	-14.799071	5.162975	-29.773590	-81.461687	26.452922	-47.833587	-160.753092	-7.663301	0.000000	14.770218	-0.312613	19.625382	28.303621	6.832082	-15.674715	-2.691236	-18.317864	0.000000
0.125000	0.000000	0.000000	0.000000	0.000000	0.000000	0.000000	-14.782080	4.861433	-28.293485	-81.292258	25.767431	-47.711121	-160.506958	-7.815773	0.000000	15.702836	-0.287187	19.093820	27.103870	6.691791	-16.390220	-2.971875	-17.586593	0.000000
0.130000	0.000000	0.000000	0.000000	0.000000	0.000000	0.000000	-14.734598	4.575428	-26.951982	-81.089961	25.196108	-47.578500	-160.766699	-7.525750	0.000000	16.640659	-0.298907	18.614703	25.899363	6.572311	-17.116594	-3.247859	-17.157998	0.000000
0.135000	0.000000	0.000000	0.000000	0.000000	0.000000	0.000000	-14.624084	4.126160	-25.571032	-80.726725	24.828157	-47.314592	-160.952943	-7.264658	0.000000	17.599402	-0.333699	17.759860	24.750485	6.406214	-17.751580	-3.515944	-16.792905	0.000000
0.140000	0.000000	0.000000	0.000000	0.000000	0.000000	0.000000	-14.497298	3.682558	-24.158256	-80.348721	24.469502	-47.039505	-160.853680	-7.260406	0.000000	18.570623	-0.439472	16.935715	23.496986	6.274288	-18.451850	-3.883022	-16.787915	0.000000
0.145000	0.000000	0.000000	0.000000	0.000000	0.000000	0.000000	-14.399793	3.236822	-22.688547	-80.059477	24.083428	-46.846625	-160.474433	-7.521526	0.000000	19.593568	-0.575524	16.083006	22.297552	6.201232	-19.169356	-4.227140	-17.562755	0.000000
0.150000	0.000000	0.000000	0.000000	0.000000	0.000000	0.000000	-14.274305	2.822103	-21.169698	-79.755416	23.605344	-46.662443	-160.025329	-7.844908	0.000000	20.675735	-0.734811	15.252708	21.195730	6.126433	-19.871245	-4.548388	-18.299510	0.000000
0.155000	0.000000	0.000000	0.000000	0.000000	0.000000	0.000000	-14.083148	2.479368	-19.794665	-79.364344	23.054341	-46.419792	-159.409929	-8.282558	0.000000	21.611757	-0.881344	14.671025	19.851184	6.018406	-20.635900	-4.974892	-18.763862	0.000000
0.160000	0.000000	0.000000	0.000000	0.000000	0.000000	0.000000	-13.935034	2.374319	-18.859189	-79.111899	22.487438	-46.294487	-159.000983	-8.589172	0.000000	22.462162	-0.989919	14.508526	18.385566	5.892405	-21.365536	-5.441690	-19.043350	0.000000
0.165000	0.000000	0.000000	0.000000	0.000000	0.000000	0.000000	-13.692873	2.274245	-18.052154	-78.695062	21.933589	-46.038744	-158.649145	-8.791879	0.000000	23.219755	-1.053278	14.525077	16.956265	5.790608	-22.192493	-5.705578	-18.902776	0.000000
0.170000	0.000000	0.000000	0.000000	0.000000	0.000000	0.000000	-13.378197	2.147822	-17.362503	-78.152879	21.411135	-45.692744	-158.493761	-8.789349	0.000000	23.924796	-1.057595	14.711629	15.709888	5.749726	-23.134597	-5.552212	-18.187109	0.000000
0.175000	0.000000	0.000000	0.000000	0.000000	0.000000	0.000000	-13.050541	2.125116	-16.801070	-77.610638	20.804922	-45.378280	-158.915535	-8.274048	0.000000	24.570277	-1.020197	15.075344	14.566622	5.698529	-24.034767	-5.098334	-16.980168	0.000000
